<?xml version="1.0" encoding="UTF-8"?>
<svg xmlns="http://www.w3.org/2000/svg" xmlns:xlink="http://www.w3.org/1999/xlink" width="659px" height="440px" viewBox="0 0 659 440" version="1.1">
<defs>
<clipPath id="clip1">
  <path d="M 86.792969 165 L 227 165 L 227 275 L 86.792969 275 Z M 86.792969 165 "/>
</clipPath>
<clipPath id="clip2">
  <path d="M 531 204 L 572.707031 204 L 572.707031 260 L 531 260 Z M 531 204 "/>
</clipPath>
</defs>
<g id="surface1">
<path style="fill-rule:nonzero;fill:rgb(100%,100%,100%);fill-opacity:1;stroke-width:1;stroke-linecap:butt;stroke-linejoin:miter;stroke:rgb(88.235295%,88.627452%,90.196079%);stroke-opacity:1;stroke-miterlimit:4;" d="M 24.5 0.5 L 635 0.5 C 647.980469 0.5 658.5 11.019531 658.5 24 L 658.5 416 C 658.5 428.980469 647.980469 439.5 635 439.5 L 24.5 439.5 C 11.519531 439.5 1 428.980469 1 416 L 1 24 C 1 11.019531 11.519531 0.5 24.5 0.5 Z M 24.5 0.5 "/>
<g clip-path="url(#clip1)" clip-rule="nonzero">
<path style=" stroke:none;fill-rule:nonzero;fill:rgb(11.372549%,38.82353%,92.941177%);fill-opacity:1;" d="M 224.527344 210.195312 C 221.09375 207.894531 212.074219 206.910156 205.519531 208.671875 C 205.164062 202.171875 201.796875 196.691406 195.636719 191.910156 L 193.355469 190.386719 L 191.835938 192.671875 C 188.847656 197.1875 187.589844 203.203125 188.035156 208.671875 C 188.386719 212.039062 189.5625 215.828125 191.835938 218.574219 C 183.300781 223.503906 175.433594 222.382812 140.59375 222.382812 L 86.804688 222.382812 C 86.648438 230.214844 87.914062 245.277344 97.535156 257.539062 C 98.601562 258.894531 99.765625 260.203125 101.03125 261.46875 C 108.855469 269.265625 120.675781 274.984375 138.351562 275 C 165.316406 275.023438 188.421875 260.515625 202.476562 225.433594 C 207.101562 225.507812 219.308594 226.257812 225.285156 214.765625 C 225.429688 214.574219 226.804688 211.71875 226.804688 211.71875 Z M 121.910156 203.035156 L 106.785156 203.035156 L 106.785156 218.089844 L 121.910156 218.089844 Z M 141.449219 203.035156 L 126.324219 203.035156 L 126.324219 218.089844 L 141.449219 218.089844 Z M 160.988281 203.035156 L 145.863281 203.035156 L 145.863281 218.089844 L 160.988281 218.089844 Z M 180.53125 203.035156 L 165.40625 203.035156 L 165.40625 218.089844 L 180.53125 218.089844 Z M 102.367188 203.035156 L 87.242188 203.035156 L 87.242188 218.089844 L 102.367188 218.089844 Z M 121.910156 184.019531 L 106.785156 184.019531 L 106.785156 199.074219 L 121.910156 199.074219 Z M 141.449219 184.019531 L 126.324219 184.019531 L 126.324219 199.074219 L 141.449219 199.074219 Z M 160.988281 184.019531 L 145.863281 184.019531 L 145.863281 199.074219 L 160.988281 199.074219 Z M 160.988281 165 L 145.863281 165 L 145.863281 180.054688 L 160.988281 180.054688 Z M 160.988281 165 "/>
</g>
<path style=" stroke:none;fill-rule:nonzero;fill:rgb(11.372549%,38.82353%,92.941177%);fill-opacity:1;" d="M 571.769531 251.894531 C 571.769531 255.820312 568.671875 258.902344 564.644531 258.902344 C 560.617188 258.902344 557.480469 255.820312 557.480469 251.894531 C 557.480469 247.96875 560.660156 244.972656 564.644531 244.972656 C 568.632812 244.972656 571.769531 248.054688 571.769531 251.894531 Z M 559.261719 251.894531 C 559.261719 254.976562 561.550781 257.425781 564.6875 257.425781 C 567.828125 257.425781 569.988281 254.976562 569.988281 251.9375 C 569.988281 248.898438 567.742188 246.367188 564.648438 246.367188 C 561.558594 246.367188 559.265625 248.855469 559.265625 251.894531 Z M 563.546875 255.527344 L 561.933594 255.527344 L 561.933594 248.605469 C 562.566406 248.476562 563.460938 248.394531 564.605469 248.394531 C 565.921875 248.394531 566.511719 248.605469 567.019531 248.898438 C 567.402344 249.195312 567.699219 249.742188 567.699219 250.417969 C 567.699219 251.179688 567.105469 251.769531 566.261719 252.023438 L 566.261719 252.109375 C 566.9375 252.359375 567.320312 252.867188 567.53125 253.796875 C 567.742188 254.851562 567.867188 255.273438 568.039062 255.527344 L 566.304688 255.527344 C 566.089844 255.273438 565.960938 254.640625 565.75 253.835938 C 565.625 253.078125 565.199219 252.738281 564.308594 252.738281 L 563.546875 252.738281 Z M 563.585938 251.601562 L 564.347656 251.601562 C 565.238281 251.601562 565.960938 251.304688 565.960938 250.589844 C 565.960938 249.953125 565.496094 249.53125 564.476562 249.53125 C 564.050781 249.53125 563.753906 249.574219 563.585938 249.617188 Z M 563.585938 251.601562 "/>
<path style=" stroke:none;fill-rule:nonzero;fill:rgb(11.372549%,38.82353%,92.941177%);fill-opacity:1;" d="M 298.558594 181.84375 C 297.5625 180.875 296.363281 180.382812 294.929688 180.382812 C 293.496094 180.382812 292.265625 180.875 291.304688 181.84375 C 290.34375 182.8125 289.871094 184.058594 289.871094 185.539062 L 289.871094 210.285156 C 284.9375 206.222656 279.242188 204.175781 272.765625 204.175781 C 265.238281 204.175781 258.800781 206.882812 253.46875 212.316406 C 248.132812 217.726562 245.484375 224.277344 245.484375 231.957031 C 245.484375 239.636719 248.152344 246.167969 253.46875 251.597656 C 258.800781 257.011719 265.222656 259.738281 272.765625 259.738281 C 280.3125 259.738281 286.660156 257.03125 292.066406 251.597656 C 297.398438 246.238281 300.046875 239.691406 300.046875 231.957031 L 300.046875 185.539062 C 300.046875 184.058594 299.558594 182.8125 298.558594 181.84375 Z M 288.527344 238.652344 L 288.527344 238.6875 C 287.640625 240.789062 286.425781 242.636719 284.882812 244.210938 C 283.34375 245.800781 281.527344 247.046875 279.460938 247.976562 C 277.375 248.910156 275.160156 249.367188 272.785156 249.367188 C 270.410156 249.367188 268.144531 248.910156 266.054688 247.976562 C 263.96875 247.046875 262.175781 245.800781 260.652344 244.230469 C 259.128906 242.65625 257.914062 240.808594 257.023438 238.707031 C 256.136719 236.585938 255.683594 234.335938 255.683594 231.957031 C 255.683594 229.578125 256.136719 227.328125 257.023438 225.207031 C 257.914062 223.085938 259.128906 221.257812 260.652344 219.683594 C 262.175781 218.109375 263.988281 216.867188 266.054688 215.933594 C 268.144531 215.003906 270.375 214.546875 272.785156 214.546875 C 275.195312 214.546875 277.375 215.003906 279.460938 215.933594 C 281.546875 216.867188 283.34375 218.109375 284.882812 219.703125 C 286.425781 221.292969 287.640625 223.140625 288.527344 225.226562 C 289.417969 227.328125 289.871094 229.5625 289.871094 231.9375 C 289.871094 234.316406 289.417969 236.566406 288.527344 238.652344 Z M 288.527344 238.652344 "/>
<path style=" stroke:none;fill-rule:nonzero;fill:rgb(11.372549%,38.82353%,92.941177%);fill-opacity:1;" d="M 523.953125 221.292969 C 522.628906 218 520.609375 215.019531 517.964844 212.351562 L 517.929688 212.332031 C 512.539062 206.917969 506.097656 204.191406 498.628906 204.191406 C 491.160156 204.191406 484.660156 206.898438 479.328125 212.332031 C 473.992188 217.742188 471.347656 224.292969 471.347656 231.972656 C 471.347656 239.652344 474.015625 246.183594 479.328125 251.613281 C 484.660156 257.027344 491.085938 259.753906 498.628906 259.753906 C 505.484375 259.753906 511.414062 257.503906 516.460938 253.007812 C 517.433594 251.980469 517.929688 250.738281 517.929688 249.292969 C 517.929688 247.847656 517.457031 246.566406 516.492188 245.597656 C 515.535156 244.628906 514.320312 244.132812 512.867188 244.132812 C 511.601562 244.171875 510.472656 244.59375 509.515625 245.433594 C 507.988281 246.75 506.339844 247.757812 504.542969 248.414062 C 502.746094 249.074219 500.789062 249.402344 498.648438 249.402344 C 496.761719 249.402344 494.949219 249.113281 493.226562 248.507812 C 491.5 247.90625 489.890625 247.082031 488.453125 246.003906 C 487.003906 244.921875 485.753906 243.644531 484.683594 242.125 C 483.613281 240.625 482.796875 238.960938 482.253906 237.132812 L 520.835938 237.132812 C 522.265625 237.132812 523.464844 236.640625 524.460938 235.671875 C 525.460938 234.699219 525.949219 233.457031 525.949219 231.976562 C 525.949219 228.136719 525.277344 224.570312 523.957031 221.292969 Z M 482.214844 226.816406 C 482.738281 225.007812 483.535156 223.34375 484.609375 221.824219 C 485.679688 220.324219 486.949219 219.027344 488.398438 217.945312 C 489.867188 216.867188 491.464844 216.046875 493.222656 215.441406 C 494.980469 214.839844 496.773438 214.546875 498.628906 214.546875 C 500.484375 214.546875 502.273438 214.839844 504.011719 215.441406 C 505.757812 216.046875 507.355469 216.867188 508.785156 217.945312 C 510.238281 219.027344 511.507812 220.304688 512.574219 221.824219 C 513.664062 223.324219 514.484375 224.988281 515.046875 226.816406 L 482.210938 226.816406 Z M 482.214844 226.816406 "/>
<g clip-path="url(#clip2)" clip-rule="nonzero">
<path style=" stroke:none;fill-rule:nonzero;fill:rgb(11.372549%,38.82353%,92.941177%);fill-opacity:1;" d="M 571.367188 207.667969 C 570.457031 206.773438 569.316406 206.078125 567.9375 205.566406 C 566.558594 205.054688 565.054688 204.703125 563.402344 204.503906 C 561.769531 204.304688 560.226562 204.210938 558.796875 204.210938 C 555.546875 204.210938 552.5 204.742188 549.636719 205.804688 C 546.769531 206.863281 544.121094 208.382812 541.691406 210.355469 L 541.691406 209.371094 C 541.691406 207.945312 541.199219 206.734375 540.199219 205.730469 C 539.207031 204.726562 538.027344 204.214844 536.632812 204.214844 C 535.234375 204.214844 534 204.726562 533.003906 205.730469 C 532.003906 206.734375 531.515625 207.960938 531.515625 209.371094 L 531.515625 254.597656 C 531.515625 256.023438 532.003906 257.234375 533.003906 258.238281 C 534 259.242188 535.195312 259.753906 536.632812 259.753906 C 538.066406 259.753906 539.222656 259.242188 540.199219 258.238281 C 541.199219 257.234375 541.691406 256.007812 541.691406 254.597656 L 541.691406 231.976562 C 541.691406 229.5625 542.144531 227.292969 543.03125 225.171875 C 543.921875 223.050781 545.136719 221.222656 546.679688 219.648438 C 548.222656 218.074219 550.035156 216.832031 552.101562 215.933594 C 554.1875 215.019531 556.402344 214.5625 558.78125 214.5625 C 561.15625 214.5625 563.402344 214.984375 565.453125 215.804688 C 566.269531 216.171875 566.980469 216.355469 567.597656 216.355469 C 568.304688 216.355469 568.972656 216.226562 569.589844 215.953125 C 570.207031 215.679688 570.753906 215.3125 571.207031 214.839844 C 571.660156 214.363281 572.019531 213.816406 572.292969 213.175781 C 572.566406 212.554688 572.710938 211.875 572.710938 211.144531 C 572.710938 209.71875 572.257812 208.566406 571.351562 207.667969 Z M 571.367188 207.667969 "/>
</g>
<path style=" stroke:none;fill-rule:nonzero;fill:rgb(11.372549%,38.82353%,92.941177%);fill-opacity:1;" d="M 358.378906 221.3125 C 357.054688 218.039062 355.078125 215.039062 352.414062 212.335938 C 347.027344 206.921875 340.589844 204.195312 333.113281 204.195312 C 325.640625 204.195312 319.148438 206.902344 313.8125 212.335938 C 308.480469 217.746094 305.835938 224.296875 305.835938 231.976562 C 305.835938 239.65625 308.5 246.1875 313.8125 251.617188 C 319.148438 257.03125 325.570312 259.757812 333.113281 259.757812 C 340.660156 259.757812 347.007812 257.050781 352.414062 251.617188 C 357.746094 246.257812 360.394531 239.710938 360.394531 231.976562 C 360.359375 228.136719 359.6875 224.589844 358.382812 221.3125 Z M 348.875 238.652344 L 348.875 238.6875 C 347.988281 240.792969 346.769531 242.636719 345.230469 244.210938 C 343.691406 245.804688 341.875 247.046875 339.808594 247.980469 C 337.738281 248.910156 335.507812 249.367188 333.132812 249.367188 C 330.757812 249.367188 328.488281 248.910156 326.402344 247.980469 C 324.316406 247.046875 322.519531 245.804688 321 244.230469 C 319.476562 242.65625 318.261719 240.808594 317.371094 238.707031 C 316.484375 236.585938 316.027344 234.335938 316.027344 231.957031 C 316.027344 229.578125 316.484375 227.328125 317.371094 225.207031 C 318.261719 223.085938 319.476562 221.257812 321 219.683594 C 322.523438 218.109375 324.335938 216.867188 326.402344 215.933594 C 328.488281 215.003906 330.722656 214.546875 333.132812 214.546875 C 335.542969 214.546875 337.722656 215.003906 339.808594 215.933594 C 341.894531 216.867188 343.691406 218.109375 345.230469 219.703125 C 346.769531 221.296875 347.988281 223.140625 348.875 225.226562 C 349.765625 227.328125 350.21875 229.5625 350.21875 231.9375 C 350.21875 234.316406 349.765625 236.566406 348.875 238.652344 Z M 348.875 238.652344 "/>
<path style=" stroke:none;fill-rule:nonzero;fill:rgb(11.372549%,38.82353%,92.941177%);fill-opacity:1;" d="M 467.5 209.351562 C 467.5 208.65625 467.355469 207.996094 467.085938 207.375 C 466.8125 206.753906 466.449219 206.1875 465.996094 205.710938 C 465.539062 205.238281 464.996094 204.851562 464.382812 204.597656 C 463.765625 204.34375 463.09375 204.195312 462.386719 204.195312 C 461.371094 204.195312 460.464844 204.453125 459.664062 204.984375 L 430.535156 224.277344 L 430.535156 185.578125 C 430.535156 184.113281 430.046875 182.890625 429.050781 181.882812 C 428.050781 180.878906 426.875 180.363281 425.476562 180.363281 C 424.078125 180.363281 422.847656 180.878906 421.847656 181.882812 C 420.851562 182.886719 420.359375 184.113281 420.359375 185.578125 L 420.359375 254.527344 C 420.359375 255.953125 420.851562 257.179688 421.847656 258.203125 C 422.84375 259.226562 424.042969 259.738281 425.476562 259.738281 C 426.910156 259.738281 428.070312 259.226562 429.050781 258.203125 C 430.046875 257.179688 430.535156 255.953125 430.535156 254.527344 L 430.535156 236.621094 L 436.484375 232.652344 L 458.996094 258.386719 C 459.902344 259.28125 461.046875 259.71875 462.40625 259.71875 C 463.113281 259.71875 463.785156 259.59375 464.398438 259.316406 C 465.015625 259.0625 465.5625 258.679688 466.015625 258.203125 C 466.46875 257.730469 466.828125 257.179688 467.101562 256.539062 C 467.375 255.917969 467.519531 255.238281 467.519531 254.5625 C 467.519531 253.210938 467.050781 252.003906 466.105469 250.945312 L 445.152344 226.929688 L 465.558594 213.433594 C 466.863281 212.539062 467.496094 211.167969 467.496094 209.316406 L 467.496094 209.355469 Z M 467.5 209.351562 "/>
<path style=" stroke:none;fill-rule:nonzero;fill:rgb(11.372549%,38.82353%,92.941177%);fill-opacity:1;" d="M 381.253906 219.648438 C 382.8125 218.074219 384.628906 216.832031 386.714844 215.933594 C 388.800781 215.019531 391.015625 214.5625 393.390625 214.5625 C 395.53125 214.5625 397.507812 214.929688 399.339844 215.660156 C 401.152344 216.390625 402.894531 217.472656 404.542969 218.878906 C 405.523438 219.664062 406.632812 220.066406 407.863281 220.066406 C 409.332031 220.066406 410.53125 219.570312 411.492188 218.585938 C 412.453125 217.59375 412.925781 216.351562 412.925781 214.871094 C 412.925781 213.386719 412.34375 212.015625 411.164062 210.957031 C 406.15625 206.457031 400.230469 204.207031 393.390625 204.207031 C 385.859375 204.207031 379.425781 206.914062 374.089844 212.347656 C 368.757812 217.757812 366.109375 224.308594 366.109375 231.988281 C 366.109375 239.667969 368.777344 246.199219 374.089844 251.628906 C 379.425781 257.042969 385.84375 259.769531 393.390625 259.769531 C 400.210938 259.769531 406.140625 257.519531 411.164062 253.019531 C 412.234375 251.921875 412.78125 250.660156 412.78125 249.195312 C 412.78125 247.734375 412.308594 246.472656 411.347656 245.503906 C 410.386719 244.53125 409.171875 244.039062 407.722656 244.039062 C 406.488281 244.074219 405.417969 244.441406 404.511719 245.136719 C 402.878906 246.5625 401.175781 247.621094 399.34375 248.335938 C 397.527344 249.046875 395.550781 249.394531 393.390625 249.394531 C 391.015625 249.394531 388.804688 248.9375 386.71875 248.023438 C 384.632812 247.109375 382.816406 245.867188 381.257812 244.3125 C 379.695312 242.757812 378.460938 240.894531 377.574219 238.789062 C 376.683594 236.667969 376.230469 234.398438 376.230469 231.984375 C 376.230469 229.570312 376.683594 227.304688 377.574219 225.183594 C 378.460938 223.058594 379.695312 221.230469 381.257812 219.660156 L 381.257812 219.640625 Z M 381.253906 219.648438 "/>
</g>
</svg>
